<svg width="400" height="400" viewBox="0 0 400 400" fill="none" xmlns="http://www.w3.org/2000/svg">
<path d="M174.923 118.986C173.526 118.053 171.951 117.647 170.435 117.435C168.313 118.801 166.315 120.202 164.209 121.415C161.23 123.13 158.03 124.308 154.599 124.751C144.119 126.103 137.152 118.235 135.769 110.852C134.743 105.378 135.68 100.19 138.375 95.3126C141.382 89.8707 145.727 85.9249 151.484 83.5636C152.543 83.1293 153.653 82.8213 154.793 82.4372C154.998 81.3305 155.192 80.2038 155.417 79.0834C156.486 73.7697 158.651 68.9633 162.15 64.8028C164.255 62.3016 166.762 60.2679 169.626 58.6815C172.518 57.0796 175.548 55.8711 178.847 55.4203C183.256 54.8179 187.589 55.1067 191.857 56.4197C195.145 57.431 198.195 58.9285 201.123 60.7831C203.369 59.2188 205.729 57.899 208.348 57.1558C216.934 54.7188 224.943 55.7755 232.103 61.3512C235.865 64.2806 238.175 68.1821 238.841 72.892C239.759 79.375 237.726 84.7818 232.45 88.84C228.577 91.8186 224.167 93.6129 219.441 94.65C218.371 94.8848 217.737 95.3625 217.268 96.3147C215.964 98.9642 215.744 101.742 216.141 104.61C216.269 105.529 216.44 106.443 216.626 107.564C217.141 109.241 217.62 110.713 217.992 112.209C215.061 111.88 212.246 111.629 209.39 111.957C203.544 112.627 198.433 114.835 194.187 118.95C190.396 122.625 187.988 127.144 186.275 132.065C185.991 132.881 185.89 133.808 185.913 134.678C186.03 139.208 186.206 143.735 186.377 148.263C186.526 152.215 186.702 156.165 186.855 160.117C186.992 163.669 187.096 167.223 187.259 170.774C187.291 171.484 187.097 171.893 186.472 172.271C185.682 172.749 184.953 173.353 184.275 173.986C181.795 176.299 180.346 179.217 179.462 182.442C178.19 187.079 178.385 191.776 179.076 196.457C179.753 201.039 181.094 205.461 182.655 209.814C182.838 210.325 183.067 210.818 183.274 211.32C183.479 210.668 183.492 210.1 183.477 209.533C183.369 205.489 183.32 201.45 183.998 197.438C184.348 195.365 184.771 193.329 186.071 191.603C186.319 191.273 186.629 190.991 187.098 190.484C188.176 197.899 188.874 205.05 190.034 212.132C190.137 212.13 190.24 212.128 190.343 212.126C191.279 205.001 192.215 197.876 193.173 190.589C194.228 191.352 194.8 192.213 195.127 193.162C195.602 194.54 195.999 195.959 196.27 197.39C197.043 201.478 196.922 205.616 196.803 209.749C196.789 210.251 196.801 210.753 196.801 211.255C197.224 210.829 197.45 210.368 197.619 209.886C199.313 205.063 200.692 200.166 201.447 195.09C202.043 191.085 202.033 187.133 201.045 183.204C199.893 178.621 197.76 174.672 193.595 172.12C192.998 171.754 193.02 171.293 193.043 170.764C193.206 166.902 193.394 163.042 193.536 159.18C193.823 151.366 194.08 143.551 194.364 135.737C194.477 132.629 194.629 129.523 194.851 126.387C198.112 124.897 201.286 123.435 204.703 121.862C201.16 122.505 198.006 123.538 194.862 124.542C194.859 123.89 194.924 123.361 194.874 122.843C194.787 121.938 195.26 121.459 196.02 121.169C196.63 120.937 197.251 120.735 197.973 120.521C205.759 118.443 213.558 117.548 221.516 118.091C227.296 118.485 232.944 119.517 238.462 121.434C238.696 127.359 238.921 133.172 239.139 138.986C239.36 144.888 239.564 150.791 239.796 156.692C239.907 159.532 240.081 162.369 240.198 165.208C240.287 167.373 240.333 169.54 240.396 171.67C237.057 173.392 234.862 176.075 233.362 179.33C231.428 183.528 231.128 187.997 231.678 192.506C231.983 195.006 232.579 197.478 233.156 199.936C233.874 202.991 235.147 205.824 237.035 208.34C238.392 210.149 240.095 211.536 242.301 212.243C243.063 212.487 243.754 212.468 244.501 212.192C246.614 211.409 248.271 210.049 249.59 208.26C251.431 205.764 252.688 202.985 253.397 199.971C254.016 197.339 254.825 194.717 255.08 192.045C255.373 188.974 255.434 185.824 254.407 182.816C253.864 181.226 253.346 179.601 252.569 178.122C251.1 175.327 249.016 173.059 246.209 171.703C246.209 170.148 246.159 168.682 246.218 167.221C246.516 159.767 246.847 152.315 247.158 144.861C247.33 140.734 247.505 136.608 247.642 132.48C247.721 130.129 247.727 127.776 247.859 125.389C248.516 125.589 249.109 125.769 249.64 126.063C268.243 136.346 280.066 151.805 284.946 172.506C285.543 175.04 285.734 177.671 286.05 180.339C285.284 184.62 284.435 188.783 283.253 192.879C280.911 200.993 277.556 208.657 273.08 215.809C268.516 223.102 263.136 229.726 256.704 235.489C253.457 238.397 250.073 241.112 246.482 243.567C239.515 248.331 232.037 252.084 224.007 254.708C221.524 255.519 219.018 256.263 216.4 257.054C210.42 257.135 204.68 256.288 199.038 254.779C163.849 245.368 141.756 210.411 148.633 174.622C152.518 154.402 163.53 138.906 180.976 127.978C181.5 127.65 182.005 127.292 182.592 127.023C182.967 127.494 183.269 127.891 183.63 128.366C184.251 127.239 184.761 126.256 185.325 125.304C185.913 124.311 186.523 123.329 187.177 122.379C187.805 121.465 188.472 120.574 189.178 119.719C189.883 118.864 190.629 118.036 191.412 117.252C192.196 116.468 193.017 115.714 193.879 115.019C194.776 114.295 195.714 113.614 196.686 112.995C197.619 112.401 198.597 111.864 199.597 111.388C200.596 110.912 201.627 110.488 202.678 110.143C203.771 109.784 204.908 109.562 206.018 109.252C207.018 108.972 208.125 109.101 209.05 108.472C208.598 108.336 208.164 108.319 207.732 108.339C200.77 108.659 194.842 111.346 189.852 116.172C186.718 119.202 184.326 122.757 182.359 126.6C181.89 126.032 181.497 125.53 181.069 124.945C180.513 124.216 179.992 123.569 179.446 122.836C178.125 121.251 176.783 119.81 174.923 118.986ZM214.007 108.17C213.963 107.866 213.943 107.555 213.871 107.257C212.956 103.5 212.737 99.7163 213.418 95.8952C213.438 95.7811 213.388 95.6545 213.355 95.4194C212.899 95.4194 212.461 95.3915 212.027 95.424C209.594 95.6063 207.147 95.6884 204.733 96.0173C198.434 96.8759 192.431 98.7135 186.857 101.828C181.896 104.601 177.709 108.243 174.47 112.937C174.205 113.319 173.981 113.729 173.715 114.164C177.205 116.487 180.197 119.078 181.983 122.817C181.12 118.942 178.878 116.098 175.509 114.164C177.602 109.658 184.578 103.904 191.536 100.686C198.224 97.5932 209.002 95.9754 212.14 96.6947C212.114 100.682 212.294 104.665 213.897 108.626C212.98 108.548 212.064 108.459 211.146 108.397C210.713 108.368 210.276 108.392 209.841 108.392C209.845 108.512 209.848 108.632 209.851 108.752C211.417 108.752 212.983 108.752 214.548 108.752C214.515 108.841 214.482 108.929 214.45 109.018C214.088 109.027 213.802 108.957 214.007 108.17ZM151.047 87.1124C144.38 90.9916 140.449 96.8064 138.947 104.309C138.696 105.561 138.454 106.87 138.552 108.126C138.717 110.215 139.418 112.202 140.4 114.069C142.9 118.826 146.84 121.252 152.212 121.383C156.482 121.486 160.456 120.284 164.493 118.704C164.958 118.501 165.424 118.299 165.89 118.097C165.841 117.986 165.792 117.876 165.744 117.766C165.076 118.026 164.409 118.286 163.533 118.62C159.736 119.62 155.911 120.304 151.961 119.744C146.964 119.035 143.299 116.523 141.279 111.822C140.861 110.849 140.594 109.812 140.256 108.804C139.98 107.98 140.035 107.169 140.198 106.317C140.873 102.801 142.065 99.4747 143.795 96.3487C145.797 92.7307 148.391 89.6158 151.942 87.2046C152.377 86.9385 152.872 86.7383 153.132 86.2828C153.076 86.1994 153.021 86.116 152.966 86.0327C152.38 86.3523 151.795 86.6719 151.047 87.1124ZM165.965 149.312C171.565 142.707 178.034 137.064 185.238 132.133C184.852 131.36 184.527 130.708 184.182 130.014C183.817 130.2 183.572 130.303 183.35 130.442C175.242 135.512 168.186 141.718 162.734 149.635C160.355 153.09 158.471 156.803 157.247 160.831C157.12 161.248 157.07 161.689 156.985 162.119C157.097 162.159 157.208 162.199 157.32 162.239C159.684 157.652 162.554 153.412 165.965 149.312ZM227.987 60.9438C225.709 59.2193 223.152 58.1552 220.327 57.7505C217.255 57.3103 214.216 57.5463 211.21 58.2734C209.133 58.7758 207.092 59.3857 205.405 60.19C207.875 59.8343 210.577 59.337 213.301 59.0799C216.972 58.7336 220.608 59.1154 223.995 60.6447C229.547 63.1511 232.648 67.7309 234.114 73.4495C235.176 77.5934 234.199 81.4164 231.324 84.6031C230.088 85.9736 228.623 87.1718 227.129 88.2674C224.898 89.9028 222.359 90.9975 219.788 91.9981C219.274 92.1979 218.768 92.4161 218.258 92.6258C222.052 91.9223 225.645 90.67 228.879 88.573C230.247 87.6864 231.559 86.6518 232.701 85.4927C235.298 82.8574 236.603 79.6059 236.148 75.9183C235.415 69.9663 232.829 64.9225 227.987 60.9438ZM191.535 59.5609C187.068 58.6437 182.571 58.2664 178.034 58.9289C172.404 59.751 167.637 62.1508 164.112 66.7301C161.314 70.3657 159.844 74.5647 159.02 79.022C158.919 79.5697 158.933 80.1388 158.893 80.698C158.804 80.6738 158.715 80.6495 158.625 80.6253C159.412 78.6274 160.078 76.5709 161.007 74.6415C165.628 65.0463 173.402 60.2424 183.952 59.7347C188.45 59.5183 192.83 60.3326 197.231 61.1006C195.405 60.6087 193.579 60.1169 191.535 59.5609ZM156.632 163.205C156.647 163.245 156.661 163.284 156.675 163.323C156.703 163.298 156.741 163.279 156.756 163.248C156.877 162.994 156.993 162.738 157.111 162.483C157.031 162.452 156.951 162.422 156.871 162.391C156.796 162.616 156.72 162.841 156.632 163.205ZM204.348 60.6751C204.299 60.6617 204.25 60.6482 204.202 60.6347C204.238 60.626 204.275 60.6172 204.348 60.6751Z" fill="#FEB500"/>
<path d="M218.1 112.185C217.62 110.713 217.141 109.241 216.66 107.663C219.326 107.318 221.973 107.55 224.614 107.895C226.808 108.182 229.012 108.412 231.19 108.792C239.655 110.268 247.656 113.1 255.207 117.195C259.782 119.677 264.131 122.53 268.086 125.9C273.367 130.401 278.171 135.372 282.172 141.088C284.492 144.404 286.654 147.812 288.467 151.419C290.46 155.386 292.091 159.503 293.437 163.75C294.662 167.612 295.496 171.547 296.186 175.517C296.549 177.603 296.669 179.738 296.804 181.857C296.953 184.198 297.023 186.546 297.073 188.892C297.142 192.133 296.746 195.338 296.323 198.546C295.842 202.201 295.127 205.808 294.101 209.338C292.999 213.128 291.814 216.901 290.045 220.453C288.92 222.714 287.88 225.026 286.622 227.211C285.321 229.47 283.861 231.645 282.364 233.781C280.917 235.846 279.411 237.881 277.787 239.808C276.308 241.563 274.673 243.192 273.039 244.808C271.688 246.144 270.3 247.456 268.819 248.641C266.435 250.55 263.988 252.384 261.516 254.179C258.418 256.427 255.073 258.271 251.619 259.909C247.159 262.025 242.547 263.734 237.783 265.044C233.54 266.211 229.214 266.918 224.857 267.413C220.75 267.879 216.602 267.91 212.487 267.678C204.25 267.214 196.227 265.536 188.51 262.597C181.167 259.8 174.393 255.955 168.133 251.19C164.229 248.218 160.731 244.812 157.41 241.234C153.045 236.53 149.422 231.261 146.37 225.624C144.979 223.054 143.671 220.409 142.641 217.679C141.33 214.2 140.234 210.63 139.238 207.045C138.219 203.374 137.669 199.602 137.296 195.804C136.805 190.793 136.974 185.769 137.151 180.765C137.262 177.601 137.954 174.447 138.525 171.314C139.442 166.278 141.027 161.421 143.039 156.732C144.401 153.556 146.023 150.482 147.685 147.449C150.229 142.803 153.424 138.615 156.917 134.632C161.811 129.052 167.368 124.269 173.599 120.252C174.069 119.949 174.461 119.527 174.906 119.073C176.782 119.81 178.125 121.251 179.347 122.843C179.066 123.002 178.836 123.031 178.653 123.139C174.007 125.871 169.72 129.096 165.794 132.777C161.474 136.825 157.663 141.317 154.386 146.262C150.885 151.548 148.103 157.183 146.023 163.167C144.725 166.901 143.76 170.721 143.064 174.616C142.385 178.417 142.071 182.252 141.897 186.097C141.753 189.288 142.091 192.467 142.371 195.647C142.647 198.791 143.202 201.881 143.931 204.938C145.566 211.796 148.041 218.332 151.556 224.46C154.414 229.443 157.699 234.107 161.626 238.317C164.048 240.914 166.558 243.422 169.319 245.648C172.635 248.323 176.103 250.787 179.834 252.878C183.562 254.967 187.411 256.775 191.421 258.241C195.85 259.861 200.393 261.087 205.054 261.766C208.158 262.219 211.302 262.503 214.437 262.616C217.31 262.72 220.202 262.591 223.073 262.384C225.629 262.2 228.179 261.845 230.709 261.429C235.099 260.707 239.367 259.473 243.505 257.859C246.31 256.765 249.084 255.553 251.753 254.164C255.333 252.3 258.808 250.224 261.96 247.672C264.267 245.805 266.626 243.983 268.775 241.944C270.83 239.996 272.679 237.827 274.554 235.698C277.821 231.989 280.543 227.886 282.873 223.543C284.8 219.951 286.643 216.306 287.768 212.35C288.507 209.752 289.462 207.208 290.079 204.584C290.695 201.962 291.076 199.279 291.439 196.606C291.719 194.548 291.89 192.468 291.971 190.392C292.122 186.533 291.966 182.68 291.47 178.845C291.323 177.705 291.267 176.547 291.035 175.425C290.552 173.084 290.043 170.744 289.425 168.435C288.773 165.998 288.103 163.555 287.227 161.193C285.67 156.992 283.716 152.96 281.369 149.138C279.375 145.892 277.205 142.773 274.766 139.827C272.208 136.738 269.429 133.864 266.445 131.222C263.061 128.226 259.369 125.609 255.477 123.27C250.89 120.514 246.056 118.326 241.018 116.567C233.672 114.003 226.064 112.907 218.297 112.585C218.269 112.615 218.193 112.648 218.17 112.532C218.131 112.339 218.116 112.262 218.1 112.185Z" fill="#44220F"/>
<path d="M293.632 248.563C292.436 249.98 291.293 251.445 290.036 252.806C286.783 256.329 283.243 259.548 279.509 262.556C276.221 265.205 272.759 267.604 269.168 269.821C264.555 272.669 259.727 275.094 254.71 277.14C249.529 279.253 244.22 280.997 238.734 282.097C234.876 282.87 230.978 283.498 227.071 283.956C221.191 284.645 215.267 284.483 209.378 284.177C202.1 283.798 194.972 282.356 187.993 280.243C182.722 278.647 177.606 276.652 172.681 274.178C172.247 273.961 171.786 273.798 171.157 273.534C170.15 274.648 169.029 275.721 168.103 276.943C165.114 280.883 163.123 285.311 162.105 290.142C161.641 292.344 161.434 294.6 161.102 296.83C160.546 300.567 159.854 304.268 157.904 307.588C155.246 312.113 151.148 314.305 146.025 313.774C144.252 313.59 142.673 312.639 141.169 311.694C137.025 309.091 134.535 305.277 133.754 300.525C133.387 298.29 133.572 295.904 133.88 293.637C134.194 291.327 134.785 289.014 135.582 286.822C136.687 283.781 138.226 280.919 140.154 278.297C143.022 274.398 146.423 271.042 150.611 268.584C152.554 267.443 154.648 266.558 156.676 265.564C156.948 265.43 157.237 265.33 157.553 265.2C154.534 262.611 151.505 260.12 148.598 257.494C145.694 254.869 142.99 252.038 140.55 248.978C140.623 248.893 140.695 248.808 140.767 248.724C141.044 248.887 141.339 249.026 141.594 249.218C146.346 252.802 151.325 256.039 156.534 258.917C164.165 263.134 172.156 266.501 180.495 269.056C186.609 270.929 192.835 272.301 199.154 273.223C202.217 273.669 205.31 273.97 208.4 274.146C212.03 274.353 215.672 274.448 219.307 274.422C226.142 274.374 232.922 273.648 239.644 272.409C247.731 270.919 255.6 268.668 263.24 265.62C268.149 263.662 272.948 261.462 277.514 258.802C281.152 256.683 284.715 254.431 288.257 252.154C290.005 251.029 291.633 249.716 293.433 248.487C293.552 248.486 293.632 248.563 293.632 248.563ZM160.261 272.112C161.61 271.219 162.959 270.327 164.343 269.411C163.296 268.722 162.263 268.042 161.256 267.38C153.197 271.803 148.883 282.895 149.522 289.958C150.073 288.294 150.574 286.644 151.163 285.026C153.007 279.969 155.844 275.596 160.261 272.112Z" fill="#DA7706"/>
<path d="M271.947 317.292C273.918 314.713 276.569 313.424 279.564 312.879C283.168 312.223 286.802 312.198 290.387 313.084C293.372 313.821 295.898 315.289 297.564 317.976C298.449 319.403 298.878 320.977 298.885 322.648C298.903 326.736 298.883 330.824 298.893 334.912C298.903 338.951 297.01 341.826 293.53 343.734C291.468 344.863 289.199 345.363 286.903 345.514C283.985 345.705 281.046 345.665 278.199 344.796C276.314 344.221 274.578 343.392 273.118 342.008C271.055 340.052 270.163 337.655 270.173 334.857C270.186 330.946 270.191 327.036 270.17 323.126C270.159 321.023 270.677 319.096 271.947 317.292ZM290.446 335.339C290.505 334.724 290.611 334.109 290.614 333.494C290.632 330.474 290.641 327.453 290.611 324.433C290.602 323.552 290.538 322.656 290.355 321.798C290.043 320.342 289.266 319.187 287.824 318.595C285.58 317.674 283.341 317.722 281.124 318.676C279.746 319.268 278.993 320.398 278.708 321.815C278.534 322.676 278.464 323.57 278.456 324.45C278.426 327.47 278.427 330.491 278.455 333.512C278.464 334.392 278.531 335.285 278.7 336.148C279.01 337.729 279.898 338.894 281.451 339.473C283.112 340.093 284.789 340.145 286.541 339.822C288.435 339.474 290.237 338.084 290.446 335.339Z" fill="#FDB400"/>
<path d="M235.687 330.4C235.687 327.825 235.704 325.383 235.683 322.942C235.649 318.932 237.589 316.138 241.011 314.269C242.621 313.389 244.371 312.86 246.188 312.683C250.224 312.288 254.25 312.182 258.087 313.845C261.142 315.17 263.321 317.296 264.079 320.642C264.234 321.325 264.299 322.042 264.303 322.744C264.323 326.828 264.284 330.912 264.321 334.996C264.357 339.069 262.392 341.875 258.922 343.767C256.9 344.869 254.676 345.357 252.427 345.507C249.15 345.726 245.86 345.657 242.718 344.486C239.335 343.226 236.819 341.093 235.935 337.428C235.781 336.79 235.711 336.119 235.698 335.461C235.665 333.819 235.687 332.176 235.687 330.4ZM243.957 333.19C243.986 333.942 243.982 334.698 244.051 335.447C244.254 337.641 245.389 339.049 247.491 339.676C248.956 340.114 250.434 340.115 251.949 339.834C254.707 339.324 255.897 337.313 255.946 335.247C256.017 332.188 256.026 329.128 256.038 326.068C256.042 324.872 256.059 323.668 255.936 322.482C255.733 320.525 254.778 319.052 252.834 318.409C251.436 317.946 250.013 317.844 248.529 318.073C245.779 318.498 244.173 320.018 244.061 322.817C243.926 326.182 243.983 329.556 243.957 333.19Z" fill="#FDB400"/>
<path d="M306.176 333.067C306.176 326.368 306.176 319.803 306.176 313.142C306.573 313.097 306.907 313.027 307.241 313.027C311.503 313.019 315.766 312.96 320.027 313.041C323.32 313.104 326.421 313.925 329.106 315.963C330.811 317.258 331.801 319.013 332.23 321.063C332.462 322.174 332.55 323.33 332.564 324.468C332.607 327.797 332.657 331.13 332.541 334.456C332.494 335.793 332.159 337.164 331.712 338.435C330.942 340.625 329.3 342.116 327.283 343.191C325.052 344.38 322.621 344.937 320.133 344.996C315.784 345.097 311.431 345.025 307.08 345.021C306.823 345.021 306.567 344.982 306.176 344.951C306.176 340.988 306.176 337.094 306.176 333.067ZM318.728 318.443C317.237 318.456 315.743 318.412 314.25 318.473C314.25 325.56 314.25 332.472 314.25 339.434C316.219 339.434 318.137 339.607 320.01 339.392C322.636 339.091 324.203 337.427 324.238 334.776C324.283 331.357 324.294 327.937 324.307 324.517C324.309 323.853 324.309 323.179 324.209 322.525C323.931 320.716 322.997 319.4 321.175 318.878C320.459 318.673 319.71 318.585 318.728 318.443Z" fill="#FDB400"/>
<path d="M128.183 345.05C125.803 345.053 123.548 345.053 121.128 345.053C120.927 340.504 121.174 336.088 120.981 331.493C117.355 331.474 113.837 331.466 110.155 331.501C110.155 336.046 110.155 340.421 110.155 344.93C107.457 345.167 104.913 345.016 102.415 345.041C102.066 343.991 101.972 314.938 102.299 313.128C104.805 312.989 107.347 313.042 110.078 313.107C110.093 314.609 110.113 316.012 110.12 317.416C110.127 318.837 110.121 320.258 110.121 321.679C110.121 323.09 110.121 324.502 110.121 325.861C111.246 326.208 119.489 326.259 121.018 325.936C121.117 321.749 120.99 317.509 121.093 313.083C123.762 313.036 126.306 313.033 128.973 313.093C129.015 313.635 129.076 314.062 129.076 314.489C129.081 324.214 129.083 333.94 129.072 343.666C129.072 344.236 129.309 345.002 128.183 345.05Z" fill="#45200B"/>
<path d="M88.6818 322.643C88.0274 322.584 88.0313 322.139 87.915 321.763C87.0639 319.019 85.6561 317.915 82.7756 317.882C81.7255 317.869 80.6327 317.95 79.6301 318.236C77.9564 318.713 76.927 319.875 76.7887 321.684C76.6942 322.919 76.5728 324.155 76.5578 325.392C76.5236 328.234 76.5216 331.078 76.5611 333.921C76.5745 334.89 76.68 335.87 76.8693 336.821C77.1812 338.386 78.5858 339.667 80.7537 339.95C82.1637 340.134 83.5805 340.04 84.9761 339.648C86.4197 339.242 87.3798 338.364 87.8983 336.977C88.0681 336.523 88.217 336.061 88.3946 335.548C90.9791 335.548 93.5296 335.548 96.2886 335.548C96.2154 336.337 96.2403 337.041 96.0742 337.698C95.1448 341.369 92.625 343.578 89.1417 344.594C84.224 346.028 79.2596 346.132 74.3799 344.298C71.9559 343.387 70.0812 341.816 69.0613 339.395C68.743 338.64 68.5503 337.773 68.5434 336.955C68.4983 331.624 68.5279 326.293 68.5156 320.962C68.5116 319.225 69.2045 317.785 70.2906 316.492C72.3886 313.994 75.1979 312.899 78.3285 312.543C79.9963 312.354 81.6892 312.258 83.3658 312.303C86.0908 312.375 88.7329 312.889 91.1645 314.234C93.8295 315.708 95.3872 317.956 95.9548 320.919C96.0126 321.221 96.0095 321.539 95.9984 321.848C95.9908 322.059 95.9198 322.268 95.8421 322.65C93.4797 322.65 91.1386 322.65 88.6818 322.643Z" fill="#45200B"/>
<path d="M145.615 332.6C145.614 334.98 145.614 337.236 145.614 339.62C146.232 339.659 146.703 339.715 147.173 339.716C151.349 339.723 155.525 339.718 159.701 339.723C160.177 339.724 160.652 339.768 161.221 339.796C161.221 341.531 161.221 343.153 161.221 344.935C158.627 345.184 156.023 345.017 153.428 345.048C150.852 345.078 148.275 345.054 145.699 345.054C143.085 345.054 140.472 345.054 137.908 345.054C137.558 343.998 137.459 315.042 137.763 313.239C138.38 312.866 138.893 313.199 139.45 313.496C140.971 314.308 142.471 315.181 144.058 315.839C145.825 316.572 147.756 316.456 149.583 316.171C151.953 315.803 154.257 315.093 156.114 313.407C156.324 313.217 156.665 313.087 156.951 313.078C158.055 313.04 159.162 313.062 160.227 313.062C160.602 314.048 160.677 316.489 160.392 318.287C159.917 318.319 159.404 318.382 158.892 318.383C155.027 318.392 151.162 318.388 147.297 318.388C146.817 318.388 146.337 318.388 145.689 318.388C145.535 320.985 145.648 323.442 145.617 326.037C146.221 326.079 146.69 326.14 147.159 326.141C150.713 326.149 154.267 326.143 157.821 326.149C158.297 326.149 158.774 326.189 159.424 326.218C159.435 327.145 159.448 327.974 159.453 328.802C159.458 329.596 159.454 330.39 159.454 331.339C158.838 331.383 158.328 331.449 157.817 331.45C154.174 331.459 150.531 331.45 146.889 331.458C145.81 331.461 145.81 331.478 145.615 332.6Z" fill="#451F0B"/>
<path d="M217.965 326.354C221.988 326.354 225.887 326.354 229.848 326.354C229.848 328.106 229.848 329.728 229.848 331.464C225.658 331.464 221.499 331.464 217.162 331.464C217.066 333.007 217.126 334.456 217.115 335.9C217.104 337.411 217.113 338.922 217.113 340.433C217.113 341.897 217.113 343.362 217.113 344.924C214.452 344.924 211.862 344.924 209.19 344.924C209.19 334.342 209.19 323.787 209.19 313.231C210.14 312.969 228.44 312.86 231.065 313.109C231.065 314.801 231.065 316.504 231.065 318.357C228.723 318.357 226.426 318.357 224.128 318.357C221.83 318.357 219.533 318.357 217.113 318.357C217.113 320.762 217.113 323.018 217.114 325.274C217.114 325.496 217.043 325.783 217.154 325.923C217.311 326.123 217.605 326.215 217.965 326.354Z" fill="#FDB400"/>
<path d="M189.854 315.216C189.854 316.271 189.854 317.198 189.854 318.273C189.274 318.317 188.807 318.381 188.34 318.382C184.697 318.391 181.053 318.387 177.41 318.387C176.932 318.387 176.453 318.387 175.857 318.387C175.642 321.087 175.78 323.631 175.766 326.358C180.061 326.429 184.209 326.35 188.447 326.407C188.447 328.149 188.447 329.715 188.447 331.438C184.243 331.438 180.13 331.438 175.868 331.438C175.82 332.048 175.753 332.514 175.752 332.98C175.743 336.445 175.747 339.911 175.747 343.376C175.747 343.856 175.747 344.336 175.747 344.939C173.058 345.169 170.513 345.004 168.016 345.05C167.68 343.884 167.639 314.565 167.925 313.268C168.882 313.01 187.839 312.925 189.747 313.194C189.781 313.801 189.818 314.444 189.854 315.216Z" fill="#45200B"/>
<path d="M123.835 241.51C125.207 242.292 126.499 243.02 127.791 243.747C127.778 243.82 127.765 243.893 127.753 243.966C126.543 244.08 125.335 244.279 124.124 244.291C121.419 244.318 118.705 244.363 116.007 244.196C112.774 243.997 109.596 243.393 106.592 242.098C103.838 240.911 101.495 239.234 100.055 236.507C97.2866 231.266 100.765 224.948 106.773 224.815C110.486 224.733 113.697 227.384 114.509 230.53C115.303 233.604 117.24 235.98 119.48 238.092C120.794 239.331 122.323 240.342 123.835 241.51ZM108.865 234.14C108.412 233.344 107.929 232.563 107.521 231.745C107.33 231.362 107.348 230.873 107.156 230.49C106.735 229.653 105.729 229.328 104.887 229.687C104.018 230.058 103.554 231.12 103.936 232.002C104.107 232.395 104.361 232.792 104.678 233.075C105.999 234.256 107.62 234.681 109.563 234.933C109.269 234.589 109.132 234.428 108.865 234.14Z" fill="#DA7706"/>
<path d="M130.923 259.747C128.692 261.035 126.956 262.727 125.6 264.794C123.608 267.832 119.372 268.272 116.731 266.081C114.95 264.603 114.185 261.834 114.995 259.546C115.838 257.165 117.859 255.715 120.329 255.687C124.205 255.642 127.746 256.794 131.086 258.671C131.346 258.817 131.569 259.029 131.915 259.289C131.538 259.465 131.273 259.589 130.923 259.747ZM119.657 260.369C119.56 259.635 119.463 258.901 119.365 258.167C118.295 258.325 117.296 258.879 116.826 259.58C116.244 260.449 116.455 261.518 117.301 261.985C118.119 262.436 119.051 262.123 119.511 261.22C119.608 261.031 119.62 260.798 119.657 260.369Z" fill="#DA7706"/>
<path d="M140.635 248.566C140.472 248.63 140.259 248.598 140.046 248.566C140.067 248.475 140.089 248.384 140.11 248.294C140.268 248.352 140.426 248.411 140.635 248.566Z" fill="#DA7706"/>
<path d="M139.835 247.874C139.825 247.917 139.788 247.93 139.75 247.943C139.769 247.91 139.789 247.877 139.835 247.874Z" fill="#DA7706"/>
<path d="M293.514 248.447C293.574 248.375 293.673 248.342 293.772 248.309C293.772 248.376 293.772 248.444 293.701 248.537C293.631 248.564 293.552 248.487 293.514 248.447Z" fill="#DA7706"/>
<path d="M247.766 125.424C247.727 127.776 247.721 130.129 247.642 132.48C247.505 136.608 247.33 140.734 247.158 144.861C246.847 152.315 246.516 159.767 246.218 167.221C246.159 168.682 246.209 170.148 246.209 171.703C249.016 173.059 251.1 175.327 252.569 178.122C253.346 179.601 253.864 181.226 254.407 182.816C255.434 185.824 255.373 188.974 255.08 192.045C254.825 194.717 254.016 197.34 253.397 199.971C252.688 202.985 251.431 205.764 249.59 208.26C248.271 210.049 246.614 211.409 244.501 212.192C243.754 212.468 243.063 212.487 242.301 212.243C240.095 211.536 238.392 210.149 237.035 208.341C235.147 205.824 233.874 202.991 233.156 199.936C232.579 197.478 231.983 195.007 231.678 192.506C231.128 187.997 231.428 183.528 233.362 179.33C234.862 176.075 237.057 173.392 240.396 171.67C240.333 169.54 240.287 167.373 240.198 165.208C240.081 162.369 239.907 159.532 239.796 156.692C239.564 150.791 239.36 144.888 239.139 138.986C238.921 133.172 238.696 127.359 238.571 121.437C239.061 121.36 239.491 121.299 239.84 121.44C242.198 122.395 244.539 123.392 246.885 124.378C247.354 124.575 247.724 124.864 247.766 125.424ZM247.504 207.247C247.541 207.308 247.578 207.37 247.615 207.431C247.675 207.351 247.734 207.27 247.925 207.009C248.661 205.475 249.457 203.966 250.121 202.402C251.463 199.243 252.345 195.959 252.633 192.523C253.21 185.627 251.297 179.554 246.711 174.345C246.452 174.051 246.22 173.732 245.823 173.453C245.784 173.463 245.744 173.473 245.705 173.483C245.714 173.513 245.722 173.542 245.731 173.572C245.813 173.516 245.895 173.461 245.879 173.602C246.066 173.989 246.211 174.403 246.446 174.757C249.562 179.432 251.053 184.606 251.161 190.191C251.275 196.133 249.837 201.755 247.504 207.247ZM247.342 207.819L247.312 207.886C247.312 207.886 247.374 207.871 247.342 207.819Z" fill="#48220C"/>
<path d="M217.992 112.209C218.115 112.262 218.131 112.339 218.186 112.611C218.376 113.164 218.527 113.522 218.678 113.881C218.678 113.881 218.656 113.872 218.669 113.944C218.77 114.147 218.858 114.278 218.946 114.41C218.946 114.41 218.925 114.405 218.945 114.476C219.048 114.679 219.131 114.811 219.214 114.943C219.214 114.943 219.193 114.938 219.204 115.012C219.304 115.216 219.393 115.345 219.482 115.475C219.482 115.475 219.461 115.47 219.469 115.545C219.567 115.75 219.657 115.879 219.748 116.009C219.748 116.009 219.739 115.994 219.741 116.078C219.824 116.366 219.906 116.569 219.994 116.786C220.001 116.799 220.015 116.824 220.011 116.887C220.008 116.951 220.014 117.077 219.931 117.14C219.372 117.205 218.887 117.267 218.422 117.197C216.241 116.868 214.07 116.437 211.849 116.538C210.396 116.604 208.939 116.66 207.494 116.814C204.336 117.15 201.352 118.077 198.591 119.661C198.286 119.836 198.105 120.228 197.867 120.519C197.251 120.735 196.63 120.937 196.02 121.169C195.26 121.459 194.787 121.938 194.874 122.843C194.924 123.361 194.858 123.89 194.826 124.626C194.792 125.364 194.778 125.89 194.763 126.416C194.629 129.523 194.477 132.629 194.364 135.737C194.08 143.551 193.823 151.366 193.536 159.18C193.394 163.042 193.206 166.902 193.043 170.764C193.02 171.293 192.998 171.754 193.595 172.12C197.76 174.672 199.893 178.621 201.045 183.204C202.033 187.133 202.043 191.085 201.447 195.09C200.692 200.166 199.313 205.063 197.619 209.886C197.45 210.368 197.224 210.829 196.801 211.255C196.801 210.753 196.788 210.251 196.803 209.749C196.922 205.616 197.043 201.478 196.269 197.39C195.999 195.959 195.602 194.54 195.127 193.162C194.8 192.213 194.228 191.352 193.172 190.589C192.215 197.876 191.279 205.001 190.343 212.126C190.24 212.128 190.137 212.13 190.033 212.132C188.874 205.05 188.176 197.899 187.098 190.484C186.629 190.991 186.319 191.273 186.07 191.603C184.771 193.329 184.348 195.365 183.998 197.438C183.32 201.45 183.368 205.489 183.476 209.533C183.492 210.1 183.479 210.668 183.274 211.32C183.067 210.818 182.838 210.325 182.655 209.814C181.094 205.461 179.752 201.039 179.076 196.457C178.385 191.776 178.19 187.079 179.462 182.442C180.346 179.217 181.795 176.299 184.274 173.986C184.953 173.353 185.682 172.749 186.472 172.271C187.097 171.893 187.291 171.484 187.258 170.773C187.095 167.223 186.992 163.669 186.855 160.117C186.702 156.165 186.526 152.215 186.377 148.263C186.206 143.735 186.029 139.208 185.913 134.678C185.89 133.808 185.99 132.881 186.275 132.065C187.988 127.144 190.396 122.625 194.187 118.95C198.433 114.835 203.544 112.627 209.39 111.957C212.246 111.629 215.061 111.88 217.992 112.209ZM192.503 165.74C192.503 165.456 192.503 165.171 192.503 164.887C192.452 164.879 192.4 164.872 192.348 164.865C192.265 165.169 192.182 165.474 192.042 166.022C191.478 168.341 190.914 170.66 190.351 172.974C191.427 173.865 192.493 174.662 193.454 175.569C194.419 176.48 195.347 177.447 196.167 178.489C196.985 179.529 197.731 180.647 198.358 181.813C198.983 182.978 199.483 184.221 199.923 185.471C200.33 186.627 200.585 187.836 200.907 189.022C200.811 189.041 200.715 189.059 200.619 189.078C200.934 187.088 200.425 185.219 199.824 183.378C198.492 179.301 196.097 175.955 192.725 173.314C192.214 172.914 191.841 172.575 191.933 171.804C192.17 169.824 192.29 167.83 192.503 165.74Z" fill="#49220B"/>
<path d="M197.973 120.521C198.105 120.228 198.286 119.836 198.592 119.661C201.352 118.077 204.336 117.15 207.494 116.814C208.939 116.66 210.396 116.604 211.849 116.538C214.071 116.437 216.241 116.868 218.422 117.197C218.887 117.267 219.372 117.205 219.965 117.113C220.135 116.936 220.113 116.869 220.015 116.824C220.015 116.824 220.001 116.799 220.001 116.686C220.003 116.371 220.005 116.169 220.008 115.967C222.371 115.886 224.67 116.383 226.978 116.766C229.803 117.234 232.647 117.641 235.432 118.292C237.526 118.781 239.551 119.58 241.586 120.299C244.922 121.477 248.131 122.962 251.269 124.584C255.066 126.547 258.556 128.993 261.899 131.647C264.859 133.997 267.607 136.592 270.135 139.394C273.351 142.957 276.223 146.794 278.651 150.945C281.349 155.558 283.605 160.381 285.23 165.476C286.538 169.58 287.422 173.78 288.041 178.049C288.745 182.913 288.636 187.795 288.462 192.665C288.358 195.568 287.82 198.47 287.311 201.343C286.127 208.034 283.843 214.368 280.714 220.386C278.251 225.122 275.391 229.609 271.852 233.631C270.388 235.295 268.975 237.017 267.385 238.554C263.002 242.791 258.217 246.514 252.914 249.559C246.631 253.167 239.986 255.83 232.915 257.423C229.366 258.222 225.786 258.806 222.144 258.945C219.842 259.033 217.539 259.176 215.237 259.167C211.509 259.151 207.803 258.763 204.154 258.022C201.247 257.432 198.338 256.781 195.503 255.918C190.91 254.522 186.516 252.619 182.317 250.263C178.317 248.018 174.537 245.462 171.021 242.528C168.225 240.195 165.551 237.718 163.255 234.879C161.22 232.364 159.14 229.87 157.309 227.209C154.79 223.549 152.704 219.625 150.987 215.514C149.513 211.986 148.289 208.376 147.39 204.66C146.451 200.779 145.74 196.859 145.59 192.858C145.496 190.333 145.276 187.801 145.389 185.285C145.527 182.196 145.867 179.108 146.275 176.04C146.949 170.959 148.39 166.051 150.262 161.304C151.497 158.175 153.073 155.168 154.656 152.192C156.536 148.66 158.863 145.407 161.398 142.312C164.184 138.911 167.217 135.757 170.59 132.916C173.552 130.421 176.672 128.168 179.966 126.142C180.368 125.895 180.693 125.524 181.078 125.119C181.497 125.53 181.89 126.032 182.367 126.637C182.462 126.813 182.485 126.882 182.519 126.948C182.005 127.292 181.5 127.65 180.976 127.978C163.53 138.906 152.518 154.402 148.633 174.622C141.756 210.411 163.849 245.368 199.038 254.778C204.68 256.287 210.42 257.135 216.524 257.079C219.65 256.923 222.54 256.869 225.406 256.572C233.263 255.755 240.706 253.452 247.777 249.964C257.256 245.288 265.251 238.755 271.778 230.451C278.308 222.144 282.687 212.802 284.991 202.491C285.991 198.012 286.529 193.464 286.579 188.886C286.611 186.011 286.281 183.133 286.113 180.257C285.734 177.671 285.543 175.04 284.946 172.506C280.066 151.805 268.243 136.346 249.64 126.063C249.109 125.769 248.516 125.589 247.859 125.389C247.724 124.864 247.355 124.575 246.885 124.378C244.54 123.392 242.198 122.395 239.84 121.44C239.491 121.299 239.061 121.36 238.559 121.325C232.944 119.517 227.296 118.485 221.516 118.091C213.558 117.548 205.759 118.443 197.973 120.521Z" fill="#47240E"/>
<path d="M286.05 180.339C286.281 183.133 286.611 186.011 286.579 188.886C286.529 193.464 285.991 198.012 284.991 202.491C282.687 212.802 278.308 222.144 271.778 230.451C265.251 238.755 257.256 245.288 247.777 249.964C240.706 253.452 233.263 255.755 225.406 256.572C222.54 256.869 219.65 256.923 216.647 257.063C219.018 256.263 221.524 255.519 224.007 254.708C232.037 252.083 239.515 248.331 246.482 243.567C250.073 241.112 253.457 238.397 256.704 235.489C263.136 229.726 268.516 223.102 273.08 215.809C277.556 208.657 280.911 200.993 283.253 192.879C284.435 188.783 285.284 184.62 286.05 180.339Z" fill="#DA7806"/>
<path d="M165.911 149.39C162.554 153.412 159.684 157.652 157.32 162.239C157.208 162.199 157.096 162.159 156.985 162.119C157.07 161.689 157.12 161.248 157.247 160.831C158.47 156.803 160.355 153.09 162.734 149.635C168.186 141.718 175.242 135.512 183.35 130.442C183.572 130.303 183.817 130.2 184.182 130.014C184.527 130.708 184.852 131.36 185.238 132.133C178.034 137.064 171.565 142.707 165.911 149.39Z" fill="#EEEBE5"/>
<path d="M228.062 61.0018C232.829 64.9226 235.415 69.9663 236.148 75.9183C236.602 79.606 235.298 82.8575 232.701 85.4928C231.559 86.6519 230.247 87.6865 228.879 88.573C225.645 90.6701 222.052 91.9224 218.258 92.6259C218.768 92.4162 219.274 92.1979 219.788 91.9981C222.359 90.9976 224.898 89.9029 227.128 88.2675C228.622 87.1719 230.088 85.9736 231.324 84.6032C234.199 81.4165 235.176 77.5935 234.114 73.4496C232.647 67.7309 229.547 63.1511 223.995 60.6448C220.608 59.1154 216.972 58.7337 213.301 59.08C210.577 59.337 207.875 59.8344 205.405 60.19C207.092 59.3857 209.133 58.7758 211.21 58.2735C214.216 57.5464 217.255 57.3104 220.327 57.7505C223.152 58.1552 225.709 59.2193 228.062 61.0018Z" fill="#50280A"/>
<path d="M164.344 118.685C160.456 120.284 156.482 121.487 152.212 121.383C146.84 121.252 142.9 118.826 140.399 114.069C139.418 112.202 138.717 110.215 138.552 108.126C138.454 106.87 138.696 105.561 138.947 104.309C140.449 96.8065 144.38 90.9916 151.283 87.0867C151.611 87.1138 151.703 87.1667 151.795 87.2195C148.391 89.6159 145.797 92.7308 143.795 96.3487C142.064 99.4748 140.873 102.801 140.198 106.317C140.035 107.169 139.98 107.98 140.256 108.804C140.594 109.812 140.861 110.849 141.279 111.822C143.299 116.523 146.964 119.035 151.961 119.744C155.911 120.304 159.736 119.62 163.786 118.624C164.141 118.646 164.243 118.666 164.344 118.685Z" fill="#50280A"/>
<path d="M213.99 108.398C212.293 104.665 212.114 100.682 212.14 96.6947C209.002 95.9753 198.223 97.5932 191.536 100.686C184.578 103.904 177.602 109.658 175.508 114.164C178.878 116.098 181.12 118.942 181.983 122.817C180.197 119.078 177.205 116.487 173.714 114.164C173.98 113.729 174.205 113.319 174.469 112.937C177.709 108.243 181.896 104.601 186.857 101.828C192.431 98.7135 198.433 96.8759 204.733 96.0173C207.147 95.6884 209.594 95.6062 212.027 95.4239C212.461 95.3915 212.899 95.4193 213.355 95.4193C213.388 95.6545 213.438 95.7811 213.418 95.8952C212.737 99.7163 212.956 103.5 213.871 107.257C213.943 107.555 213.963 107.866 213.996 108.269C213.986 108.368 213.99 108.398 213.99 108.398Z" fill="#50280A"/>
<path d="M191.644 59.5931C193.579 60.117 195.405 60.6089 197.231 61.1007C192.83 60.3328 188.45 59.5185 183.952 59.7349C173.401 60.2425 165.628 65.0465 161.007 74.6416C160.078 76.5711 159.412 78.6275 158.625 80.6254C158.715 80.6497 158.804 80.6739 158.893 80.6981C158.933 80.1389 158.919 79.5699 159.02 79.0221C159.843 74.5648 161.314 70.3658 164.112 66.7302C167.637 62.151 172.404 59.7511 178.034 58.9291C182.571 58.2666 187.068 58.6439 191.644 59.5931Z" fill="#50280A"/>
<path d="M182.592 127.023C182.485 126.882 182.462 126.813 182.443 126.703C184.326 122.757 186.718 119.203 189.852 116.172C194.842 111.346 200.77 108.659 207.732 108.339C208.164 108.319 208.598 108.336 209.05 108.472C208.125 109.101 207.018 108.972 206.018 109.252C204.908 109.562 203.771 109.784 202.678 110.143C201.627 110.488 200.595 110.912 199.596 111.388C198.597 111.864 197.619 112.401 196.685 112.995C195.714 113.614 194.776 114.295 193.879 115.019C193.017 115.714 192.196 116.468 191.412 117.252C190.628 118.036 189.883 118.864 189.177 119.719C188.472 120.574 187.805 121.465 187.176 122.379C186.523 123.329 185.913 124.311 185.325 125.304C184.761 126.256 184.251 127.239 183.63 128.366C183.269 127.891 182.967 127.494 182.592 127.023Z" fill="#FFFBF1"/>
<path d="M194.851 126.387C194.778 125.89 194.793 125.364 194.843 124.754C198.005 123.538 201.16 122.504 204.703 121.862C201.286 123.435 198.112 124.897 194.851 126.387Z" fill="#E2E0DE"/>
<path d="M213.943 108.512C213.99 108.398 213.986 108.368 213.978 108.382C213.802 108.957 214.088 109.028 214.45 109.018C214.482 108.929 214.515 108.841 214.548 108.752C212.983 108.752 211.417 108.752 209.851 108.752C209.848 108.632 209.845 108.512 209.841 108.392C210.276 108.392 210.713 108.368 211.146 108.397C212.064 108.459 212.98 108.548 213.943 108.512Z" fill="#E2E0DE"/>
<path d="M151.869 87.2121C151.703 87.1667 151.611 87.1138 151.365 87.0262C151.795 86.672 152.38 86.3523 152.965 86.0327C153.021 86.1161 153.076 86.1995 153.132 86.2829C152.872 86.7384 152.377 86.9386 151.869 87.2121Z" fill="#DA7706"/>
<path d="M164.418 118.694C164.243 118.666 164.141 118.646 163.891 118.587C164.409 118.286 165.076 118.026 165.744 117.766C165.792 117.876 165.841 117.987 165.89 118.097C165.424 118.299 164.958 118.502 164.418 118.694Z" fill="#DA7706"/>
<path d="M156.638 163.136C156.72 162.841 156.795 162.616 156.871 162.391C156.951 162.422 157.031 162.452 157.111 162.483C156.993 162.738 156.877 162.994 156.756 163.248C156.741 163.279 156.703 163.298 156.675 163.323C156.661 163.284 156.647 163.244 156.638 163.136Z" fill="#E2E0DE"/>
<path d="M204.331 60.6419C204.275 60.6171 204.239 60.6259 204.202 60.6348C204.251 60.6484 204.3 60.662 204.331 60.6419Z" fill="#50280A"/>
<path d="M205.197 121.733C205.197 121.737 205.197 121.729 205.197 121.733Z" fill="#E2E0DE"/>
<path d="M217.47 92.9308C217.475 92.9348 217.466 92.9269 217.47 92.9308Z" fill="#50280A"/>
<path d="M182.269 123.869C182.272 123.865 182.265 123.873 182.269 123.869Z" fill="#50280A"/>
<path d="M183.587 211.854C183.591 211.867 183.582 211.841 183.587 211.854Z" fill="#49220B"/>
<path d="M218.676 113.781C218.527 113.523 218.377 113.164 218.209 112.727C218.193 112.648 218.269 112.615 218.297 112.585C218.442 112.931 218.558 113.306 218.676 113.781Z" fill="#DA7706"/>
<path d="M160.186 272.171C155.844 275.597 153.006 279.969 151.163 285.026C150.574 286.644 150.073 288.294 149.522 289.958C148.882 282.895 153.197 271.803 161.256 267.38C162.263 268.042 163.296 268.722 164.343 269.411C162.959 270.327 161.61 271.22 160.186 272.171Z" fill="#EEEBE5"/>
<path d="M108.93 234.204C109.132 234.428 109.269 234.589 109.564 234.933C107.62 234.681 105.999 234.256 104.678 233.075C104.361 232.792 104.107 232.395 103.936 232.001C103.554 231.12 104.018 230.058 104.887 229.687C105.729 229.328 106.735 229.653 107.156 230.49C107.348 230.873 107.33 231.362 107.521 231.745C107.929 232.563 108.412 233.344 108.93 234.204Z" fill="#EEEBE5"/>
<path d="M119.664 260.477C119.62 260.798 119.608 261.031 119.511 261.22C119.051 262.123 118.118 262.436 117.301 261.985C116.455 261.518 116.244 260.449 116.826 259.58C117.296 258.879 118.295 258.325 119.365 258.167C119.462 258.901 119.56 259.635 119.664 260.477Z" fill="#EEEBE5"/>
<path d="M219.944 115.96C220.005 116.169 220.003 116.371 219.994 116.673C219.906 116.569 219.824 116.366 219.75 116.075C219.756 115.988 219.88 115.954 219.944 115.96Z" fill="#50280A"/>
<path d="M219.745 115.927C219.657 115.881 219.567 115.751 219.47 115.535C219.557 115.58 219.649 115.711 219.745 115.927Z" fill="#DA7706"/>
<path d="M219.477 115.393C219.393 115.347 219.304 115.217 219.206 115.002C219.288 115.047 219.38 115.178 219.477 115.393Z" fill="#DA7706"/>
<path d="M219.206 114.861C219.131 114.812 219.048 114.68 218.947 114.465C219.018 114.515 219.108 114.646 219.206 114.861Z" fill="#DA7706"/>
<path d="M218.947 114.323C218.858 114.28 218.77 114.148 218.673 113.933C218.758 113.977 218.852 114.105 218.947 114.323Z" fill="#DA7706"/>
<path d="M245.976 173.425C246.22 173.732 246.452 174.051 246.711 174.345C251.297 179.554 253.21 185.627 252.633 192.523C252.345 195.959 251.463 199.243 250.121 202.402C249.457 203.967 248.661 205.475 247.798 207.051C247.628 207.125 247.585 207.157 247.543 207.19C249.837 201.755 251.275 196.133 251.161 190.191C251.053 184.606 249.562 179.432 246.446 174.757C246.211 174.403 246.066 173.989 245.922 173.511C245.965 173.419 245.976 173.425 245.976 173.425Z" fill="#E2E0DE"/>
<path d="M247.523 207.219C247.585 207.157 247.628 207.125 247.732 207.141C247.734 207.271 247.674 207.352 247.615 207.432C247.578 207.371 247.541 207.309 247.523 207.219Z" fill="#DA7706"/>
<path d="M245.971 173.412C245.895 173.461 245.813 173.517 245.731 173.573C245.722 173.543 245.714 173.513 245.705 173.484C245.744 173.473 245.784 173.463 245.9 173.439C245.976 173.425 245.965 173.419 245.971 173.412Z" fill="#E2E0DE"/>
<path d="M246.804 208.937C246.81 208.932 246.797 208.942 246.804 208.937Z" fill="#DA7706"/>
<path d="M247.065 208.39C247.073 208.385 247.057 208.394 247.065 208.39Z" fill="#DA7706"/>
<path d="M247.357 207.845C247.372 207.871 247.312 207.885 247.312 207.885C247.312 207.885 247.341 207.819 247.357 207.845Z" fill="#DA7706"/>
<path d="M192.533 164.933C192.367 166.921 192.17 169.824 191.933 171.804C191.841 172.575 192.215 172.914 192.725 173.314C196.097 175.955 198.492 179.301 199.824 183.379C200.425 185.219 201 187.4 200.619 189.078C200.715 189.06 200.811 189.041 200.907 189.022C200.585 187.836 200.331 186.627 199.923 185.471C199.483 184.221 198.983 182.978 198.358 181.813C197.731 180.647 196.986 179.529 196.167 178.489C195.348 177.447 194.419 176.48 193.454 175.569C192.493 174.662 191.427 173.865 190.351 172.974C190.914 170.66 191.658 167.254 192.333 164.867C192.533 164.933 192.467 164.867 192.533 164.933Z" fill="#E2E0DE"/>
<path d="M220.012 116.888C220.113 116.869 220.135 116.936 220.048 117.05C220.014 117.077 220.008 116.951 220.012 116.888Z" fill="#50280A"/>
</svg>
